<?xml version="1.0" encoding="utf-8"?>
<svg viewBox="0 0 900 100" xmlns="http://www.w3.org/2000/svg">
  <rect width="900" height="100" style="fill: rgb(41, 41, 41);"/>
  <path d="M 161.988 55.781 L 169.019 55.098 Q 169.654 58.638 171.595 60.298 Q 173.535 61.958 176.831 61.958 Q 180.323 61.958 182.093 60.481 Q 183.863 59.004 183.863 57.027 Q 183.863 55.757 183.118 54.866 Q 182.373 53.975 180.518 53.316 Q 179.248 52.876 174.732 51.753 Q 168.921 50.313 166.577 48.213 Q 163.282 45.259 163.282 41.011 Q 163.282 38.277 164.832 35.896 Q 166.382 33.516 169.3 32.271 Q 172.217 31.026 176.343 31.026 Q 183.081 31.026 186.487 33.98 Q 189.893 36.934 190.064 41.865 L 182.837 42.183 Q 182.373 39.424 180.848 38.216 Q 179.322 37.007 176.27 37.007 Q 173.12 37.007 171.338 38.301 Q 170.191 39.131 170.191 40.523 Q 170.191 41.792 171.265 42.696 Q 172.632 43.843 177.906 45.088 Q 183.179 46.333 185.706 47.664 Q 188.233 48.994 189.661 51.302 Q 191.089 53.609 191.089 57.002 Q 191.089 60.078 189.38 62.764 Q 187.671 65.449 184.546 66.756 Q 181.421 68.062 176.758 68.062 Q 169.971 68.062 166.333 64.925 Q 162.696 61.787 161.988 55.781 Z M 212.128 59.175 L 218.964 60.323 Q 217.646 64.082 214.802 66.048 Q 211.957 68.013 207.685 68.013 Q 200.922 68.013 197.675 63.594 Q 195.112 60.054 195.112 54.658 Q 195.112 48.213 198.481 44.563 Q 201.85 40.913 207.001 40.913 Q 212.787 40.913 216.132 44.734 Q 219.477 48.555 219.33 56.441 L 202.143 56.441 Q 202.216 59.492 203.803 61.189 Q 205.39 62.886 207.758 62.886 Q 209.369 62.886 210.468 62.007 Q 211.567 61.128 212.128 59.175 Z M 212.519 52.241 Q 212.446 49.263 210.981 47.713 Q 209.516 46.162 207.416 46.162 Q 205.17 46.162 203.705 47.798 Q 202.241 49.434 202.265 52.241 Z M 236.816 41.499 L 236.816 46.968 L 232.128 46.968 L 232.128 57.417 Q 232.128 60.591 232.263 61.116 Q 232.397 61.641 232.873 61.983 Q 233.349 62.324 234.033 62.324 Q 234.985 62.324 236.791 61.665 L 237.377 66.988 Q 234.985 68.013 231.957 68.013 Q 230.102 68.013 228.613 67.39 Q 227.123 66.768 226.428 65.779 Q 225.732 64.79 225.463 63.106 Q 225.243 61.909 225.243 58.272 L 225.243 46.968 L 222.094 46.968 L 222.094 41.499 L 225.243 41.499 L 225.243 36.348 L 232.128 32.344 L 232.128 41.499 Z M 258.64 67.427 L 258.64 63.545 Q 257.224 65.62 254.917 66.817 Q 252.61 68.013 250.046 68.013 Q 247.434 68.013 245.359 66.865 Q 243.284 65.718 242.356 63.643 Q 241.428 61.568 241.428 57.906 L 241.428 41.499 L 248.288 41.499 L 248.288 53.413 Q 248.288 58.882 248.667 60.115 Q 249.045 61.348 250.046 62.068 Q 251.047 62.788 252.585 62.788 Q 254.343 62.788 255.735 61.824 Q 257.126 60.86 257.639 59.431 Q 258.152 58.003 258.152 52.437 L 258.152 41.499 L 265.012 41.499 L 265.012 67.427 Z M 271.918 41.499 L 278.315 41.499 L 278.315 45.308 Q 279.56 43.355 281.684 42.134 Q 283.808 40.913 286.396 40.913 Q 290.912 40.913 294.062 44.453 Q 297.211 47.993 297.211 54.317 Q 297.211 60.811 294.037 64.412 Q 290.864 68.013 286.347 68.013 Q 284.199 68.013 282.453 67.158 Q 280.707 66.304 278.779 64.229 L 278.779 77.29 L 271.918 77.29 Z M 278.705 54.024 Q 278.705 58.394 280.439 60.481 Q 282.172 62.569 284.662 62.569 Q 287.055 62.569 288.642 60.652 Q 290.229 58.736 290.229 54.365 Q 290.229 50.288 288.593 48.311 Q 286.957 46.333 284.54 46.333 Q 282.026 46.333 280.366 48.274 Q 278.705 50.215 278.705 54.024 Z M 314.769 55.781 L 321.8 55.098 Q 322.435 58.638 324.376 60.298 Q 326.317 61.958 329.613 61.958 Q 333.104 61.958 334.874 60.481 Q 336.644 59.004 336.644 57.027 Q 336.644 55.757 335.899 54.866 Q 335.155 53.975 333.299 53.316 Q 332.03 52.876 327.513 51.753 Q 321.702 50.313 319.359 48.213 Q 316.063 45.259 316.063 41.011 Q 316.063 38.277 317.613 35.896 Q 319.163 33.516 322.081 32.271 Q 324.998 31.026 329.124 31.026 Q 335.863 31.026 339.268 33.98 Q 342.674 36.934 342.845 41.865 L 335.618 42.183 Q 335.155 39.424 333.629 38.216 Q 332.103 37.007 329.051 37.007 Q 325.902 37.007 324.119 38.301 Q 322.972 39.131 322.972 40.523 Q 322.972 41.792 324.046 42.696 Q 325.413 43.843 330.687 45.088 Q 335.96 46.333 338.487 47.664 Q 341.014 48.994 342.442 51.302 Q 343.87 53.609 343.87 57.002 Q 343.87 60.078 342.161 62.764 Q 340.452 65.449 337.327 66.756 Q 334.202 68.062 329.539 68.062 Q 322.752 68.062 319.115 64.925 Q 315.477 61.787 314.769 55.781 Z M 348.487 49.751 Q 348.487 44.282 350.122 40.572 Q 351.343 37.837 353.455 35.664 Q 355.567 33.491 358.081 32.442 Q 361.426 31.026 365.796 31.026 Q 373.706 31.026 378.455 35.933 Q 383.203 40.84 383.203 49.58 Q 383.203 58.247 378.492 63.142 Q 373.78 68.037 365.894 68.037 Q 357.91 68.037 353.199 63.167 Q 348.487 58.296 348.487 49.751 Z M 355.933 49.507 Q 355.933 55.586 358.741 58.723 Q 361.548 61.861 365.869 61.861 Q 370.191 61.861 372.962 58.748 Q 375.733 55.635 375.733 49.409 Q 375.733 43.257 373.035 40.23 Q 370.337 37.202 365.869 37.202 Q 361.402 37.202 358.667 40.266 Q 355.933 43.33 355.933 49.507 Z M 388.842 67.427 L 388.842 31.636 L 400.439 31.636 Q 407.031 31.636 409.033 32.173 Q 412.109 32.979 414.184 35.677 Q 416.259 38.374 416.259 42.647 Q 416.259 45.943 415.063 48.189 Q 413.867 50.435 412.023 51.717 Q 410.18 52.998 408.276 53.413 Q 405.688 53.926 400.781 53.926 L 396.069 53.926 L 396.069 67.427 Z M 396.069 37.691 L 396.069 47.847 L 400.024 47.847 Q 404.296 47.847 405.737 47.285 Q 407.177 46.724 407.995 45.528 Q 408.813 44.331 408.813 42.744 Q 408.813 40.791 407.665 39.522 Q 406.518 38.252 404.76 37.935 Q 403.466 37.691 399.56 37.691 Z M 420.355 55.781 L 427.386 55.098 Q 428.021 58.638 429.962 60.298 Q 431.903 61.958 435.199 61.958 Q 438.69 61.958 440.46 60.481 Q 442.23 59.004 442.23 57.027 Q 442.23 55.757 441.485 54.866 Q 440.741 53.975 438.885 53.316 Q 437.616 52.876 433.099 51.753 Q 427.288 50.313 424.945 48.213 Q 421.649 45.259 421.649 41.011 Q 421.649 38.277 423.199 35.896 Q 424.749 33.516 427.667 32.271 Q 430.584 31.026 434.71 31.026 Q 441.449 31.026 444.854 33.98 Q 448.26 36.934 448.431 41.865 L 441.204 42.183 Q 440.741 39.424 439.215 38.216 Q 437.689 37.007 434.637 37.007 Q 431.488 37.007 429.705 38.301 Q 428.558 39.131 428.558 40.523 Q 428.558 41.792 429.632 42.696 Q 430.999 43.843 436.273 45.088 Q 441.546 46.333 444.073 47.664 Q 446.6 48.994 448.028 51.302 Q 449.456 53.609 449.456 57.002 Q 449.456 60.078 447.747 62.764 Q 446.038 65.449 442.913 66.756 Q 439.788 68.062 435.125 68.062 Q 428.338 68.062 424.701 64.925 Q 421.063 61.787 420.355 55.781 Z M 486.078 54.268 L 486.078 48.238 L 501.655 48.238 L 501.655 62.495 Q 499.384 64.693 495.075 66.365 Q 490.766 68.037 486.347 68.037 Q 480.732 68.037 476.557 65.681 Q 472.382 63.325 470.283 58.943 Q 468.183 54.561 468.183 49.409 Q 468.183 43.819 470.527 39.473 Q 472.87 35.127 477.387 32.808 Q 480.829 31.026 485.956 31.026 Q 492.621 31.026 496.369 33.821 Q 500.117 36.616 501.191 41.548 L 494.013 42.891 Q 493.256 40.254 491.169 38.728 Q 489.081 37.202 485.956 37.202 Q 481.22 37.202 478.425 40.205 Q 475.629 43.208 475.629 49.116 Q 475.629 55.489 478.461 58.675 Q 481.293 61.861 485.883 61.861 Q 488.154 61.861 490.436 60.969 Q 492.719 60.078 494.355 58.809 L 494.355 54.268 Z M 508.27 37.984 L 508.27 31.636 L 515.13 31.636 L 515.13 37.984 Z M 508.27 67.427 L 508.27 41.499 L 515.13 41.499 L 515.13 67.427 Z M 534.058 41.499 L 534.058 46.968 L 529.37 46.968 L 529.37 57.417 Q 529.37 60.591 529.505 61.116 Q 529.639 61.641 530.115 61.983 Q 530.591 62.324 531.275 62.324 Q 532.227 62.324 534.034 61.665 L 534.62 66.988 Q 532.227 68.013 529.2 68.013 Q 527.344 68.013 525.855 67.39 Q 524.366 66.768 523.67 65.779 Q 522.974 64.79 522.705 63.106 Q 522.486 61.909 522.486 58.272 L 522.486 46.968 L 519.336 46.968 L 519.336 41.499 L 522.486 41.499 L 522.486 36.348 L 529.37 32.344 L 529.37 41.499 Z M 538.89 67.427 L 538.89 31.636 L 546.117 31.636 L 546.117 45.723 L 560.277 45.723 L 560.277 31.636 L 567.503 31.636 L 567.503 67.427 L 560.277 67.427 L 560.277 51.778 L 546.117 51.778 L 546.117 67.427 Z M 591.992 67.427 L 591.992 63.545 Q 590.576 65.62 588.268 66.817 Q 585.961 68.013 583.398 68.013 Q 580.786 68.013 578.71 66.865 Q 576.635 65.718 575.707 63.643 Q 574.78 61.568 574.78 57.906 L 574.78 41.499 L 581.64 41.499 L 581.64 53.413 Q 581.64 58.882 582.018 60.115 Q 582.397 61.348 583.398 62.068 Q 584.399 62.788 585.937 62.788 Q 587.695 62.788 589.086 61.824 Q 590.478 60.86 590.991 59.431 Q 591.503 58.003 591.503 52.437 L 591.503 41.499 L 598.364 41.499 L 598.364 67.427 Z M 605.172 67.427 L 605.172 31.636 L 612.033 31.636 L 612.033 44.527 Q 615.206 40.913 619.552 40.913 Q 624.288 40.913 627.389 44.344 Q 630.49 47.774 630.49 54.195 Q 630.49 60.835 627.328 64.424 Q 624.166 68.013 619.65 68.013 Q 617.428 68.013 615.267 66.902 Q 613.107 65.791 611.544 63.618 L 611.544 67.427 Z M 611.984 53.902 Q 611.984 57.93 613.253 59.859 Q 615.036 62.593 617.99 62.593 Q 620.26 62.593 621.859 60.652 Q 623.458 58.711 623.458 54.536 Q 623.458 50.093 621.847 48.128 Q 620.236 46.162 617.721 46.162 Q 615.255 46.162 613.62 48.079 Q 611.984 49.995 611.984 53.902 Z M 680.368 67.427 L 672.506 67.427 L 669.381 59.297 L 655.075 59.297 L 652.12 67.427 L 644.454 67.427 L 658.395 31.636 L 666.036 31.636 Z M 667.062 53.267 L 662.13 39.986 L 657.296 53.267 Z M 706.76 49.165 L 699.997 50.386 Q 699.656 48.36 698.447 47.334 Q 697.239 46.309 695.31 46.309 Q 692.746 46.309 691.221 48.079 Q 689.695 49.849 689.695 53.999 Q 689.695 58.614 691.245 60.518 Q 692.795 62.422 695.408 62.422 Q 697.361 62.422 698.606 61.311 Q 699.851 60.2 700.364 57.49 L 707.102 58.638 Q 706.052 63.277 703.074 65.645 Q 700.095 68.013 695.09 68.013 Q 689.402 68.013 686.02 64.424 Q 682.639 60.835 682.639 54.488 Q 682.639 48.067 686.033 44.49 Q 689.426 40.913 695.212 40.913 Q 699.949 40.913 702.744 42.952 Q 705.539 44.99 706.76 49.165 Z M 723.847 41.499 L 723.847 46.968 L 719.16 46.968 L 719.16 57.417 Q 719.16 60.591 719.294 61.116 Q 719.428 61.641 719.904 61.983 Q 720.38 62.324 721.064 62.324 Q 722.016 62.324 723.823 61.665 L 724.409 66.988 Q 722.016 68.013 718.989 68.013 Q 717.133 68.013 715.644 67.39 Q 714.155 66.768 713.459 65.779 Q 712.763 64.79 712.495 63.106 Q 712.275 61.909 712.275 58.272 L 712.275 46.968 L 709.125 46.968 L 709.125 41.499 L 712.275 41.499 L 712.275 36.348 L 719.16 32.344 L 719.16 41.499 Z M 728.614 37.984 L 728.614 31.636 L 735.474 31.636 L 735.474 37.984 Z M 728.614 67.427 L 728.614 41.499 L 735.474 41.499 L 735.474 67.427 Z M 740.917 54.097 Q 740.917 50.679 742.602 47.481 Q 744.286 44.282 747.375 42.598 Q 750.463 40.913 754.272 40.913 Q 760.156 40.913 763.915 44.734 Q 767.675 48.555 767.675 54.39 Q 767.675 60.274 763.879 64.143 Q 760.082 68.013 754.321 68.013 Q 750.756 68.013 747.521 66.402 Q 744.286 64.79 742.602 61.677 Q 740.917 58.565 740.917 54.097 Z M 747.949 54.463 Q 747.949 58.321 749.78 60.371 Q 751.611 62.422 754.296 62.422 Q 756.982 62.422 758.801 60.371 Q 760.62 58.321 760.62 54.414 Q 760.62 50.606 758.801 48.555 Q 756.982 46.504 754.296 46.504 Q 751.611 46.504 749.78 48.555 Q 747.949 50.606 747.949 54.463 Z M 796.627 67.427 L 789.767 67.427 L 789.767 54.195 Q 789.767 49.995 789.328 48.762 Q 788.888 47.53 787.899 46.846 Q 786.911 46.162 785.519 46.162 Q 783.737 46.162 782.321 47.139 Q 780.905 48.115 780.38 49.727 Q 779.855 51.338 779.855 55.684 L 779.855 67.427 L 772.995 67.427 L 772.995 41.499 L 779.367 41.499 L 779.367 45.308 Q 782.76 40.913 787.911 40.913 Q 790.182 40.913 792.062 41.731 Q 793.942 42.549 794.906 43.819 Q 795.87 45.088 796.249 46.699 Q 796.627 48.311 796.627 51.314 Z" style="fill: rgb(255, 255, 255); white-space: pre;"/>
  <path stroke-linecap="round" stroke-linejoin="round" d="M 111.906 46.594 L 111.906 36.25 C 111.906 26.696 101.563 20.724 93.288 25.501 C 89.448 27.718 87.082 31.816 87.082 36.25 L 87.082 46.594 M 85.013 77.624 L 113.975 77.624 C 117.402 77.624 120.181 74.845 120.181 71.418 L 120.181 52.8 C 120.181 49.372 117.402 46.594 113.975 46.594 L 85.013 46.594 C 81.586 46.594 78.807 49.372 78.807 52.8 L 78.807 71.418 C 78.807 74.845 81.586 77.624 85.013 77.624 Z" style="fill: none; stroke: rgb(255, 255, 255); stroke-width: 6px;"/>
</svg>